<svg width="34" height="34" viewBox="0 0 34 34" fill="none" xmlns="http://www.w3.org/2000/svg">
<path d="M25.217 16.9999C25.2102 16.2653 24.9143 15.563 24.3933 15.0452L18.4034 9.04139C18.1418 8.78134 17.788 8.63538 17.4191 8.63538C17.0502 8.63538 16.6964 8.78134 16.4348 9.04139C16.3039 9.17119 16.2 9.32561 16.1291 9.49575C16.0583 9.6659 16.0218 9.84839 16.0218 10.0327C16.0218 10.217 16.0583 10.3995 16.1291 10.5697C16.2 10.7398 16.3039 10.8942 16.4348 11.024L21.0283 15.6036H7.06609C6.69578 15.6036 6.34065 15.7507 6.07881 16.0126C5.81696 16.2744 5.66986 16.6296 5.66986 16.9999C5.66986 17.3702 5.81696 17.7253 6.07881 17.9872C6.34065 18.249 6.69578 18.3961 7.06609 18.3961H21.0283L16.4348 22.9897C16.1719 23.2507 16.0234 23.6056 16.0221 23.9761C16.0208 24.3466 16.1667 24.7024 16.4278 24.9653C16.6888 25.2282 17.0437 25.3767 17.4142 25.378C17.7847 25.3793 18.1405 25.2334 18.4034 24.9723L24.3933 18.9685C24.9177 18.4473 25.2139 17.7393 25.217 16.9999V16.9999Z" fill="#EAECED"/>
</svg>
